<svg xmlns="http://www.w3.org/2000/svg" style="display:none;"><symbol viewBox="0 0 100 100" id="icon-baidu"><title>Baidu</title>  <path id="svgstoree195cf0c87bb283f0cff1d10eb36d56bBaidu" d="M29.013,38.588c0.535,7.65-3.611,14.173-9.264,14.57c-5.651,0.396-10.667-5.483-11.202-13.135
	c-0.535-7.65,3.611-14.174,9.264-14.571C23.463,25.056,28.479,30.937,29.013,38.588z M67.939,6.874
	c-5.491-1.401-11.474,3.489-13.363,10.921c-1.894,7.432,1.024,14.592,6.515,15.993c5.489,1.4,11.475-3.488,13.364-10.921
	C76.915,13.194,69.255,7.208,67.939,6.874z M80.813,31.925c-5.776,0.086-10.359,5.579-10.232,14.088
	c0.126,8.508,4.904,12.387,10.684,12.301c5.773-0.086,10.358-4.102,10.233-12.614C91.331,34.626,82.196,31.905,80.813,31.925z
	 M38.966,5c-5.496,0-9.951,6.16-9.951,13.756s4.455,13.753,9.951,13.753s9.952-6.157,9.952-13.753S44.462,5,38.966,5z M37.694,47.72
	c-3.175,4.559-6.775,9.01-13.762,14.842c-6.988,5.832-9.952,9.859-9.952,15.795s3.388,15.795,13.022,15.795
	c9.634,0,14.292-2.121,21.915-2.121C56.54,92.031,61.623,95,71.256,95c9.635,0,13.658-9.117,13.658-15.053s-1.672-9.297-9.39-16.072
	c-4.946-4.346-9.138-7.885-15.702-17.002c-3.246-4.508-6.988-5.088-10.904-5.088C45,41.785,40.871,43.163,37.694,47.72z"/> </symbol><symbol viewBox="0 0 100 100" id="icon-bing"><title>Bing</title> <path id="svgstoree672a95523da063f4deb0d36d38dcd42Bing" d="M5,11v48.064h0.063C5.735,75.675,25.565,89,50,89c24.856,0,45-13.783,45-30.79c0-17.006-20.144-30.789-45-30.789
	c-10.874,0-20.854,2.642-28.636,7.04V11H5z M50,37.685c15.82,0,28.636,9.188,28.636,20.525c0,11.339-12.815,20.527-28.636,20.527
	c-15.813,0-28.636-9.188-28.636-20.527C21.364,46.873,34.188,37.685,50,37.685z M31.071,58.21c0-7.497,8.477-13.566,18.929-13.566
	c10.459,0,18.929,6.069,18.929,13.566c0,7.494-8.47,13.568-18.929,13.568C39.548,71.778,31.071,65.704,31.071,58.21z"/> </symbol><symbol viewBox="0 0 100 100" id="icon-blogger"><title>Blogger</title> <path id="svgstore59250becd5f28204e896ed5fb9d20e06Blogger" d="M66.296,95c15.692,0,28.439-12.783,28.527-28.389L95,43.633l-0.265-1.25l-0.754-1.573l-1.275-0.986
	C91.05,38.525,82.659,39.912,80.4,37.86c-1.603-1.464-1.853-4.109-2.338-7.694c-0.901-6.943-1.47-7.305-2.558-9.659
	C71.554,12.149,60.835,5.868,53.47,5H33.523C17.83,5,5,17.802,5,33.438v33.173C5,82.217,17.83,95,33.523,95H66.296z M33.886,28.233
	h15.815c3.019,0,5.465,2.451,5.465,5.43c0,2.967-2.446,5.438-5.465,5.438H33.886c-3.02,0-5.46-2.472-5.46-5.438
	C28.426,30.684,30.866,28.233,33.886,28.233z M28.426,66.191c0-2.978,2.44-5.411,5.46-5.411h32.135c3,0,5.436,2.433,5.436,5.411
	c0,2.939-2.436,5.41-5.436,5.41H33.886C30.866,71.602,28.426,69.13,28.426,66.191z"/> </symbol><symbol viewBox="0 0 100 100" id="icon-creative_commons"><title>Creative Commons</title> <path id="svgstoree7470bffd6cdc9e0f2e75c87d6503248Creative_Commons" d="M50.369,50c0-8.773,5.84-13.956,13.178-13.956c5.041,0,9.383,1.844,11.929,6.479l-5.987,3.14
	c-1.399-2.991-3.796-3.639-4.994-3.639c-4.44,0-6.04,3.44-6.04,7.976c0,4.537,1.898,7.976,6.04,7.976
	c2.397,0,4.294-0.898,5.54-3.889l5.593,2.842c-2.396,4.236-6.74,7.027-11.83,7.027C55.86,63.957,50.369,58.924,50.369,50z
	 M37.801,63.957c5.09,0,9.435-2.791,11.83-7.027l-5.59-2.842c-1.249,2.99-3.146,3.889-5.541,3.889c-4.144,0-6.04-3.439-6.04-7.976
	c0-4.535,1.598-7.976,6.04-7.976c1.197,0,3.593,0.648,4.992,3.639l5.987-3.14c-2.544-4.636-6.888-6.479-11.929-6.479
	c-7.338,0-13.178,5.183-13.178,13.956C24.373,58.924,29.861,63.957,37.801,63.957z M18.209,81.687C9.565,73.055,5,61.959,5,50
	c0-11.835,4.689-23.177,13.331-31.931C26.728,9.563,37.593,5,49.938,5s23.457,4.563,32.101,13.192C90.558,26.7,95,37.796,95,50
	c0,12.33-4.442,23.301-12.839,31.562C73.272,90.315,61.791,95,49.938,95C38.087,95,26.85,90.315,18.209,81.687z M13.146,50
	c0,9.618,3.951,18.863,10.987,25.892C31.17,82.919,40.309,86.74,50.063,86.74c9.629,0,19.012-3.821,26.298-10.972
	C83.271,68.986,86.854,60.11,86.854,50c0-9.986-3.704-19.108-10.618-26.014c-7.039-7.026-16.049-10.848-26.173-10.848
	s-19.015,3.699-25.929,10.725C17.098,31.014,13.146,40.261,13.146,50z"/> </symbol><symbol viewBox="0 0 32 32" id="icon-delicious"><title>Delicious</title> <g id="svgstored4af288bf90a7d50bf9e3adbf1f01af8icomoon-ignore"> <line stroke-width="1" x1="" y1="" x2="" y2="" stroke="#449FDB" opacity=""/> </g> <path d="M26.668 0h-21.334c-2.934 0-5.334 2.401-5.334 5.334v21.332c0 2.935 2.4 5.334 5.334 5.334h21.334c2.934 0 5.332-2.398 5.332-5.334v-21.332c0-2.934-2.398-5.334-5.332-5.334zM30 26.666c0 0.885-0.348 1.721-0.98 2.354s-1.467 0.98-2.352 0.98h-10.668v-14h-14v-10.666c0-0.885 0.348-1.72 0.981-2.353s1.468-0.981 2.353-0.981h10.666v14h14v10.666z"/> </symbol><symbol viewBox="0 0 100 100" id="icon-digg"><title>Digg</title> <path id="svgstorefaa0528a82281bedf7d0c80da59375ebDigg" style="fill-rule:evenodd;clip-rule:evenodd;" d="M21,18v16H5v0.68v7.545v15.381l0,0V66l0,0l0,0h9.373l0,0h6.338l0,0
	H30V42.395v-8.874V18H21z M14,58V42h7v16H14z M32,34h9v32h-9V34z M32,18h9v9h-9V18z M69,34L69,34H45v8.395l0,0V66h15v7H45v9h15.007
	H69V66.374v-9.059V34L69,34z M54,58V42h6v16H54z M95,34H71l0,0l0,0v23.605V66h16v7H71v9h15.744H95v-9.594v-5.927v-8.874V42.395l0,0
	V34z M87,58h-7V42h7V58z"/> </symbol><symbol viewBox="0 0 100 100" id="icon-digg_alt"><title>Digg</title> <path id="svgstore74932512595e8ced483a445ab1e053eaDigg__x28_alt_x29_" style="fill-rule:evenodd;clip-rule:evenodd;" d="M95,27.602h-6.232v0.014h-5.314V10h-6.063h-0.17
	H49.762v5.956V27.37H44.35h-0.025h-6.117v22.697H10.904V27.37H5v22.819h5.902v6.083h10.58v10.539h-4.432v6.205h14.98v10.789h-14.98
	V73.016h-6.025V90h6.025h14.98h0.02h6.023V73.016h-6.023v-6.205h-4.428V56.272h16.975v33.554h5.957v0.063h39.289v-6.084V54.892H95
	V27.602z M77.221,15.956v22.328H55.818V15.956H77.221z M70.201,83.805V66.811h-5.482v16.994H50.746V56.272v-0.061v-6.144H44.35
	V33.694h5.412v10.792h5.951h0.105h21.402h0.17h6.063V33.694h5.314v16.495h-5.07v33.616H70.201z M32.051,27.37v-5.955h6.156v5.955
	H32.051z M32.051,21.416h-15v-6.201h15V21.416z M17.051,27.37h-6.146v-5.955h6.146V27.37z"/> </symbol><symbol viewBox="0 0 100 100" id="icon-dribbble"><title>Dribble</title> <path id="svgstore14fdfef5e0c3d0879edda7b93b99f260Dribbble" d="M49.998,5C25.145,5.002,5,25.148,5,50.002C5,74.852,25.145,95,49.998,95C74.851,95,94.997,74.852,95,50.002
	C94.997,25.148,74.851,5.002,49.998,5z M77.571,28.332c4.39,5.575,7.139,12.479,7.486,20.018c-5.081-1.078-9.88-1.603-14.355-1.603
	v-0.001h-0.033c-3.602,0-6.984,0.327-10.17,0.892c-0.775-1.898-1.559-3.721-2.35-5.467C65.245,39.058,72.056,34.626,77.571,28.332z
	 M49.998,14.893c8.282,0,15.878,2.895,21.892,7.715c-4.602,5.51-10.677,9.501-17.24,12.319c-4.611-8.917-9.067-15.296-12.113-19.196
	C44.948,15.196,47.437,14.893,49.998,14.893z M34.491,18.553c2.437,2.878,7.316,9.209,12.527,19.094
	c-10.598,3.155-21.27,3.896-27.727,3.894c-0.184,0-0.366,0-0.545-0.002H18.74c-1.087,0-2.022-0.017-2.803-0.041
	C18.456,31.418,25.362,23.07,34.491,18.553z M14.89,50.002c0-0.165,0.006-0.333,0.016-0.506c1.002,0.037,2.288,0.069,3.835,0.069
	h0.009c7.057-0.046,19.379-0.636,31.866-4.578c0.681,1.488,1.354,3.038,2.021,4.647c-8.339,2.789-14.907,7.232-19.765,11.657
	c-4.676,4.26-7.836,8.478-9.682,11.295C18.024,66.47,14.893,58.61,14.89,50.002z M49.998,85.111c-7.813,0-15.014-2.584-20.856-6.92
	c1.242-2.045,3.904-5.97,8.143-10.027c4.362-4.18,10.383-8.482,18.244-11.043c2.672,7.49,5.09,16.053,6.932,25.691
	C58.581,84.29,54.388,85.111,49.998,85.111z M69.868,78.877c-1.781-8.717-4.021-16.577-6.48-23.592
	c2.281-0.327,4.675-0.512,7.201-0.512h0.09h0.006h0.006c4.188,0,8.789,0.521,13.779,1.655
	C82.743,65.711,77.366,73.706,69.868,78.877z"/> </symbol><symbol viewBox="0 0 100 100" id="icon-dropbox"><title>DropBox</title> <path id="svgstorebd96a666c8795ecbba09bd7cf8079b51Dropbox_1_" d="M78.01,40.856L51.09,24.46l16.977-14.054l26.936,16.576L78.01,40.856z M67.887,71.848l25.852-15.135
	L78.189,43.56L52.879,58.875L67.887,71.848z M47.129,58.875L21.816,43.56L6.27,56.713l25.854,15.135L47.129,58.875z M23.082,69.686
	v4.865l25.836,15.855V60.315L31.762,74.369L23.082,69.686z M76.922,69.686l-8.674,4.684L51.09,60.315v30.091l25.832-15.855V69.686z
	 M48.918,24.46L31.941,10.406L5.002,26.982l16.996,13.874L48.918,24.46z"/> </symbol><symbol viewBox="0 0 32 32" id="icon-facebook"><title>Facebook</title> <g id="svgstore8e06fcef74a16459414a301fb8d45dceicomoon-ignore"> <line stroke-width="1" x1="" y1="" x2="" y2="" stroke="#449FDB" opacity=""/> </g> <path d="M17.996 32h-5.996v-16h-4v-5.514l4-0.002-0.007-3.248c0-4.498 1.22-7.236 6.519-7.236h4.412v5.515h-2.757c-2.064 0-2.163 0.771-2.163 2.209l-0.008 2.76h4.959l-0.584 5.514-4.37 0.002-0.004 16z"/> </symbol><symbol viewBox="0 0 32 32" id="icon-facebook2"><title>Facebook</title> <g id="svgstoreeb501239abd07a0bb327fcab63935c70icomoon-ignore"> <line stroke-width="1" x1="" y1="" x2="" y2="" stroke="#449FDB" opacity=""/> </g> <path d="M26.667 0h-21.333c-2.933 0-5.334 2.4-5.334 5.334v21.332c0 2.936 2.4 5.334 5.334 5.334l21.333-0c2.934 0 5.333-2.398 5.333-5.334v-21.332c0-2.934-2.399-5.334-5.333-5.334zM27.206 16h-5.206v14h-6v-14h-2.891v-4.58h2.891v-2.975c0-4.042 1.744-6.445 6.496-6.445h5.476v4.955h-4.473c-1.328-0.002-1.492 0.692-1.492 1.985l-0.007 2.48h6l-0.794 4.58z"/> </symbol><symbol viewBox="0 0 32 32" id="icon-facebook3"><title>Facebook</title> <g id="svgstore28e29b664e3af2b100b3d009724890b6icomoon-ignore"> <line stroke-width="1" x1="" y1="" x2="" y2="" stroke="#449FDB" opacity=""/> </g> <path d="M16 0c8.837 0 16 7.163 16 16 0 8.159-6.107 14.892-14 15.876v-11.876h5.5l0.5-4h-6v-2c0-1.105 0.895-2 2-2h4v-4h-4c-3.314 0-6 2.686-6 6v2h-3v4h3v11.876c-7.893-0.984-14-7.717-14-15.876 0-8.837 7.163-16 16-16z"/> </symbol><symbol viewBox="0 0 32 32" id="icon-feed"><title>Feed</title> <g id="svgstore56773878719556cc6fe4ed350dea1e89icomoon-ignore"> <line stroke-width="1" x1="" y1="" x2="" y2="" stroke="#449FDB" opacity=""/> </g> <path d="M4.259 23.467c-2.35 0-4.259 1.917-4.259 4.252 0 2.349 1.909 4.244 4.259 4.244 2.358 0 4.265-1.895 4.265-4.244-0-2.336-1.907-4.252-4.265-4.252zM0.005 10.873v6.133c3.993 0 7.749 1.562 10.577 4.391 2.825 2.822 4.384 6.595 4.384 10.603h6.16c-0-11.651-9.478-21.127-21.121-21.127zM0.012 0v6.136c14.243 0 25.836 11.604 25.836 25.864h6.152c0-17.64-14.352-32-31.988-32z"/> </symbol><symbol viewBox="0 0 32 32" id="icon-feed2"><title>Feed</title> <g id="svgstore90fe9e330536902c1f89ec3db435992cicomoon-ignore"> <line stroke-width="1" x1="" y1="" x2="" y2="" stroke="#449FDB" opacity=""/> </g> <path d="M26.667 0h-21.333c-2.934 0-5.334 2.4-5.334 5.334v21.332c0 2.935 2.4 5.334 5.334 5.334h21.333c2.934 0 5.333-2.398 5.333-5.334v-21.332c0-2.934-2.399-5.334-5.333-5.334zM8.717 25.977c-1.499 0-2.717-1.209-2.717-2.707 0-1.49 1.218-2.713 2.717-2.713 1.505 0 2.721 1.223 2.721 2.713-0 1.498-1.216 2.707-2.721 2.707zM15.546 26c0-2.557-0.994-4.963-2.796-6.764-1.804-1.805-4.199-2.801-6.747-2.801v-3.912c7.427 0 13.473 6.045 13.473 13.477l-3.93 0zM22.488 26c0-9.096-7.396-16.498-16.48-16.498v-3.914c11.25 0 20.405 9.16 20.405 20.412l-3.924-0z"/> </symbol><symbol viewBox="0 0 32 32" id="icon-feed3"><title>Feed</title> <g id="svgstored256e0ad4f45b3870bdaeba709046f81icomoon-ignore"> <line stroke-width="1" x1="" y1="" x2="" y2="" stroke="#449FDB" opacity=""/> </g> <path d="M16 0c-8.837 0-16 7.163-16 16s7.163 16 16 16 16-7.163 16-16-7.163-16-16-16zM10 24c-1.105 0-2-0.895-2-2s0.895-2 2-2 2 0.895 2 2-0.895 2-2 2zM15.5 24c0-4.136-3.364-7.5-7.5-7.5v-3c5.79 0 10.5 4.71 10.5 10.5h-3zM21.5 24c0-3.606-1.404-6.996-3.954-9.546s-5.94-3.954-9.546-3.954v-3c4.407 0 8.551 1.716 11.667 4.833s4.833 7.26 4.833 11.667h-3z"/> </symbol><symbol viewBox="0 0 100 100" id="icon-feedburner"><title>FeedBurner</title> <path id="svgstore4c950b307e356dfa9167294c30fbda46Feedburner" style="fill-rule:evenodd;clip-rule:evenodd;" d="M78.906,64.148c0.25-1.341,0.423-2.689,0.431-4.039
	c0.068-16.917-9.127-23.513-18.865-29.15c2.82,14.815-6.3,23.961-17.631,20.759C59.403,24.63,35.304,24.564,42.669,5
	c-11.326,8.046-22.688,30.563-22.652,46.997c0.006,4.34,0.443,8.374,1.252,12.07C13.116,67.334,8,71.962,8,77.092
	C8,86.956,26.868,95,50.002,95C73.139,95,92,86.956,92,77.092C92,72.001,86.95,67.411,78.906,64.148z M33.927,42.646
	c-3.133,14.127,5.266,24.647,13.354,24.75c9.124,0.068,14.533-8.457,17.11-19.63c4.847,3.7,7.35,8.859,7.671,14.119
	c-0.013-0.004-0.024-0.007-0.037-0.011c0.368,5.957-2.067,12.043-7.123,16.3c-0.026,0.023-0.053,0.046-0.079,0.067
	c-1.088,0.907-2.299,1.726-3.625,2.445c-0.117,0.063-0.24,0.123-0.361,0.186c-0.531,0.276-1.081,0.533-1.648,0.775
	c-0.164,0.07-0.325,0.141-0.492,0.208c-1.391,0.559-2.887,1.011-4.486,1.346c-0.225,0.046-0.453,0.085-0.681,0.127
	c-0.604,0.11-1.224,0.206-1.854,0.283c-0.248,0.029-0.493,0.063-0.746,0.088c-0.859,0.084-1.736,0.147-2.646,0.165
	c-0.635,0.013-1.264-0.013-1.887-0.055c-0.164-0.011-0.326-0.026-0.489-0.04c-0.528-0.048-1.052-0.112-1.569-0.199
	c-0.098-0.016-0.196-0.026-0.293-0.044c-0.625-0.112-1.242-0.251-1.848-0.418c-0.074-0.021-0.147-0.046-0.221-0.066
	c-0.566-0.162-1.123-0.347-1.67-0.556c-0.057-0.021-0.115-0.042-0.173-0.065c-7.505-2.949-12.96-10.257-12.668-20.413
	c-0.014,0.003-0.025,0.007-0.038,0.011C27.591,56.359,29.532,49.82,33.927,42.646z"/> </symbol><symbol viewBox="0 0 32 32" id="icon-flickr"><title>Flickr</title> <g id="svgstorecc57a0c15cbd0f64aa88436bac5b4cb9icomoon-ignore"> <line stroke-width="1" x1="" y1="" x2="" y2="" stroke="#449FDB" opacity=""/> </g> <path d="M25 13c-2.206 0-4 1.794-4 4s1.794 4 4 4c2.206 0 4-1.794 4-4s-1.794-4-4-4zM25 10v0c3.866 0 7 3.134 7 7s-3.134 7-7 7c-3.866 0-7-3.134-7-7s3.134-7 7-7zM0 17c0-3.866 3.134-7 7-7s7 3.134 7 7c0 3.866-3.134 7-7 7s-7-3.134-7-7z"/> </symbol><symbol viewBox="0 0 32 32" id="icon-flickr2"><title>Flickr</title> <g id="svgstore5b6033d1644d501833ed53a067aa4b1dicomoon-ignore"> <line stroke-width="1" x1="" y1="" x2="" y2="" stroke="#449FDB" opacity=""/> </g> <path d="M26.668 0h-21.334c-2.934 0-5.334 2.4-5.334 5.334v21.332c0 2.936 2.4 5.334 5.334 5.334h21.334c2.934 0 5.332-2.399 5.332-5.334v-21.332c0-2.933-2.399-5.334-5.332-5.334zM9 21c-2.761 0-5-2.239-5-5s2.239-5 5-5 5 2.239 5 5c0 2.761-2.239 5-5 5zM23 21c-2.761 0-5-2.239-5-5s2.239-5 5-5 5 2.239 5 5c0 2.761-2.239 5-5 5z"/> </symbol><symbol viewBox="0 0 32 32" id="icon-flickr3"><title>Flickr</title> <g id="svgstore2ff8419ea64dac8147e67bc9f711b6a8icomoon-ignore"> <line stroke-width="1" x1="" y1="" x2="" y2="" stroke="#449FDB" opacity=""/> </g> <path d="M16 0c-8.837 0-16 7.212-16 16.109s7.163 16.109 16 16.109 16-7.212 16-16.109-7.163-16.109-16-16.109zM9 21c-2.761 0-5-2.239-5-5s2.239-5 5-5 5 2.239 5 5c0 2.761-2.239 5-5 5zM23 21c-2.761 0-5-2.239-5-5s2.239-5 5-5 5 2.239 5 5c0 2.761-2.239 5-5 5z"/> </symbol><symbol viewBox="0 0 32 32" id="icon-foursquare"><title>FourSquare</title> <g id="svgstorebb12746886a3fc4c89e8bf36a5473825icomoon-ignore"> <line stroke-width="1" x1="" y1="" x2="" y2="" stroke="#449FDB" opacity=""/> </g> <path d="M26.667 0h-21.333c-2.934 0-5.334 2.4-5.334 5.334v21.332c0 2.936 2.4 5.334 5.334 5.334h21.333c2.934 0 5.333-2.398 5.333-5.334v-21.332c0-2.934-2.399-5.334-5.333-5.334zM29.373 29.373c-0.727 0.727-1.688 1.127-2.706 1.127h-21.333c-1.018 0-1.98-0.4-2.707-1.127s-1.127-1.688-1.127-2.707v-21.332c0-1.018 0.4-1.979 1.128-2.707s1.688-1.127 2.706-1.127h21.333c0.222 0 0.441 0.020 0.655 0.057l-6.603 9.064-3.064-3.064c-0.431-0.431-1.005-0.669-1.616-0.669s-1.184 0.238-1.616 0.669l-1.391 1.391c-0.078-0.106-0.159-0.211-0.246-0.313-1.895-2.215-5.227-2.475-7.442-0.579s-2.475 5.227-0.579 7.442c0.435 0.508 0.946 0.912 1.501 1.212 0.011 0.57 0.233 1.137 0.667 1.571l7.491 7.49c0.432 0.432 1.006 0.67 1.616 0.67s1.185-0.238 1.616-0.67l7.491-7.49c0.432-0.432 0.67-1.006 0.67-1.616s-0.238-1.185-0.67-1.616l-0.862-0.862 6.216-5.467v17.946c0 1.019-0.4 1.98-1.127 2.707zM13.762 10.34l1.721-1.721c0.148-0.148 0.346-0.23 0.556-0.23s0.407 0.082 0.555 0.23l3.23 3.231-3.511 4.82c-0.347 0.387-0.652 0.183-0.773 0.040-0.041-0.049-0.865-1.127-1.93-2.524 0.529-1.211 0.586-2.588 0.152-3.844zM15.626 21.001c0 0 0.272 0.253 0.572 0.009l6.935-5.852 0.952 0.952c0.148 0.148 0.23 0.346 0.23 0.555s-0.082 0.407-0.23 0.555l-7.491 7.49c-0.148 0.148-0.345 0.23-0.555 0.23s-0.407-0.082-0.556-0.23l-7.414-7.414c0.863 0.116 1.752 0.020 2.583-0.296l4.974 4.001z"/> </symbol><symbol viewBox="0 0 32 32" id="icon-foursquare2"><title>FourSquare</title> <g id="svgstoreb459180aa3e15711c5e93e772d93c210icomoon-ignore"> <line stroke-width="1" x1="" y1="" x2="" y2="" stroke="#449FDB" opacity=""/> </g> <path d="M31.99 0h-3.534l-7.738 10.622-3.064-3.064c-0.431-0.431-1.005-0.669-1.616-0.669s-1.184 0.238-1.616 0.669l-1.391 1.391c-0.078-0.106-0.159-0.211-0.246-0.313-1.895-2.215-5.227-2.475-7.442-0.579s-2.475 5.227-0.579 7.442c0.435 0.508 0.946 0.912 1.501 1.212 0.011 0.57 0.233 1.137 0.667 1.571l7.491 7.49c0.432 0.432 1.006 0.67 1.616 0.67s1.185-0.238 1.616-0.67l7.491-7.49c0.432-0.432 0.67-1.006 0.67-1.616s-0.238-1.185-0.67-1.616l-0.862-0.862 7.706-6.503v-7.684zM15.484 8.618c0.148-0.148 0.346-0.23 0.556-0.23s0.407 0.082 0.555 0.23l3.23 3.231-3.511 4.82c-0.347 0.387-0.652 0.183-0.773 0.040-0.041-0.049-0.865-1.127-1.93-2.524 0.529-1.211 0.586-2.588 0.152-3.844l1.721-1.721zM24.085 16.11c0.148 0.148 0.23 0.346 0.23 0.555s-0.082 0.407-0.23 0.555l-7.491 7.49c-0.148 0.148-0.345 0.23-0.555 0.23s-0.407-0.082-0.556-0.23l-7.414-7.414c0.863 0.116 1.752 0.020 2.583-0.296l4.974 4.001c0 0 0.272 0.253 0.572 0.009l6.935-5.852 0.952 0.952z"/> </symbol><symbol viewBox="0 0 100 100" id="icon-friendster"><title>Friendster</title> <path id="svgstore1b2e41b6b6019ce16e746bcab380f5ddFriendster" d="M41.849,20.577c6.207,5.292,8.569,14.571,6.207,22.327c-2.661,6.998-14.526,7.018-17.007-0.203
	c-2.545-7.234-1.446-16.431,3.994-22.108C36.939,18.682,40.018,18.348,41.849,20.577z M58.073,13.574
	c-6.392,2.949-6.741,11.591-6.489,17.756c0.481,5.645,2.162,14.12,9.251,14.353c8.139-3.266,7.956-13.801,6.824-21.087
	C66.959,19.705,64.098,12.701,58.073,13.574z M89.574,24.109c-3.462-0.887-8.604-1.106-10.168,2.931
	c-5.175,10.421-4.707,23.183-12.065,32.664c-5.939,7.201-15.474,12.262-24.959,10.669c-5.042-0.804-9.835-3.701-12.48-8.156
	c-5.348-8.855-5.581-20.425-11.88-28.64C2.467,26.92,4.941,46.141,5.453,49.352c0.024,0.146,0.049,0.292,0.074,0.438
	c0,0.006,0.003,0.021,0.003,0.021l0,0c0.738,4.641,0.984,9.42,3.221,13.645c8.785,18.125,31.484,26.8,50.403,21.508
	C79.971,79.017,94.4,57.728,95,36.371C94.883,31.932,94.183,26.102,89.574,24.109z"/> </symbol><symbol viewBox="0 0 100 100" id="icon-goodreads"><title>Good Reads</title> <path id="svgstorea60778b182e9aa19b88accabd6028de4Goodreads" d="M49.289,68.463c9.74-0.081,16.666-4.953,20.775-14.614h0.215v14.735c0,1.098-0.072,2.801-0.215,5.115
	c-0.293,2.395-1.076,4.973-2.346,7.733c-1.273,2.598-3.328,4.812-6.16,6.637c-2.801,1.989-6.709,3.024-11.727,3.106
	c-4.834,0-8.922-1.259-12.268-3.775c-3.42-2.477-5.418-6.496-5.998-12.057h-4.252c0.436,7.225,2.742,12.381,6.922,15.467
	c4.07,2.962,9.234,4.445,15.488,4.445c6.178,0,10.996-1.157,14.449-3.472c3.416-2.232,5.869-5.014,7.361-8.343
	c1.49-3.328,2.381-6.495,2.67-9.498c0.221-3.005,0.328-5.156,0.328-6.455V6.717h-4.254v13.396h-0.215
	c-1.637-4.911-4.344-8.625-8.127-11.143c-3.816-2.476-8.033-3.715-12.648-3.715c-8.037,0.163-14.143,3.268-18.322,9.317
	c-4.291,6.007-6.434,13.417-6.434,22.226c0,9.053,2.035,16.542,6.105,22.469C34.748,65.317,40.963,68.382,49.289,68.463z
	 M33.912,17.861c3.342-5.481,8.467-8.322,15.377-8.525c7.088,0.204,12.338,2.964,15.758,8.282
	c3.416,5.319,5.125,11.712,5.125,19.182c0,7.47-1.709,13.822-5.125,19.059c-3.42,5.563-8.67,8.403-15.758,8.525
	C42.6,64.261,37.508,61.5,34.02,56.102c-3.527-5.237-5.289-11.671-5.289-19.303C28.73,29.654,30.457,23.341,33.912,17.861z"/> </symbol><symbol viewBox="0 0 100 100" id="icon-google_buzz"><title>Google Buzz</title> <path id="svgstore2d6f3c42ce6b679b85290e7402fc4a85Google_Buzz" style="fill-rule:evenodd;clip-rule:evenodd;" d="M95,46.388c0,7.683-3.003,14.799-8.105,20.651
	L59.942,39.772l22.243-18.59C90.109,27.687,95,36.578,95,46.388z M37.505,54.151l41.93-35.044
	c-7.894-5.481-18.179-8.805-29.438-8.805c-16.361,0-30.681,7.005-38.557,17.479L37.505,54.151z M17.223,71.102l17.7-14.792
	l-25.4-25.698C6.627,35.377,5,40.73,5,46.388C5,55.955,9.648,64.645,17.223,71.102z M84.585,69.473L57.361,41.93L37.735,58.334
	l-0.406,0.41l-0.038,0.2L31.529,64h-0.243L23,70.528c0,0.001,0,0.001,0,0.001l-3.153,2.696c0.624,0.449,1.326,0.861,1.982,1.283
	c-1.515,4.15-3.771,8.836-7.157,13.695c7.908,3.439,16.924-1.825,23.261-7.054c3.838,0.855,7.881,1.326,12.061,1.326
	C63.896,82.476,76.33,77.417,84.585,69.473z"/> </symbol><symbol viewBox="0 0 100 100" id="icon-google_talk"><title>Google Talk</title> <path id="svgstore44bb7ece314b80b54b8b4dac7f70c75bGoogle_Talk" style="fill-rule:evenodd;clip-rule:evenodd;" d="M94.609,41.276c0-19.814-20.146-35.87-44.992-35.87
	c-24.862,0-45.008,16.056-45.008,35.87c0,17.21,15.216,31.59,35.519,35.063c-0.468,5.742-1.658,12.286-4.163,19.066
	c9.931-2.645,18.614-11.517,24.624-19.339C80.132,72.16,94.609,58.064,94.609,41.276z M68.911,63.368
	c-0.601,0.114-1.207,0.208-1.822,0.272c-0.648,0.063-1.304,0.107-1.968,0.107c-0.578,0-1.146-0.046-1.711-0.093
	c7.054-5.077,11.648-13.198,11.648-22.378c0-10.083-5.533-18.888-13.792-23.78c1.253-0.243,2.536-0.39,3.854-0.39
	c11.948,0,21.631,10.443,21.631,23.326C86.752,51.911,79.048,61.433,68.911,63.368z"/> </symbol><symbol viewBox="0 0 32 32" id="icon-googleplus"><title>Google Plus</title> <g id="svgstored223a8fcee5bb400ff6af5cad577f090icomoon-ignore"> <line stroke-width="1" x1="" y1="" x2="" y2="" stroke="#449FDB" opacity=""/> </g> <path d="M17.471 2c0 0-6.28 0-8.373 0-3.754 0-7.287 2.844-7.287 6.138 0 3.366 2.559 6.083 6.378 6.083 0.266 0 0.524-0.005 0.776-0.024-0.248 0.475-0.425 1.009-0.425 1.564 0 0.936 0.503 1.694 1.14 2.313-0.481 0-0.945 0.014-1.452 0.014-4.649-0-8.228 2.961-8.228 6.032 0 3.024 3.923 4.916 8.573 4.916 5.301 0 8.228-3.008 8.228-6.032 0-2.425-0.715-3.877-2.928-5.442-0.757-0.536-2.204-1.839-2.204-2.604 0-0.897 0.256-1.34 1.607-2.395 1.385-1.082 2.365-2.603 2.365-4.372 0-2.106-0.938-4.159-2.699-4.837h2.655l1.874-1.355zM14.546 22.483c0.066 0.28 0.103 0.569 0.103 0.863 0 2.444-1.575 4.353-6.093 4.353-3.214 0-5.535-2.035-5.535-4.478 0-2.395 2.879-4.389 6.093-4.354 0.75 0.008 1.449 0.129 2.083 0.334 1.745 1.213 2.996 1.899 3.349 3.281zM9.401 13.368c-2.157-0.065-4.207-2.413-4.58-5.246s1.074-5.001 3.231-4.937c2.157 0.065 4.207 2.338 4.58 5.171s-1.075 5.077-3.231 5.012zM26 8v-6h-2v6h-6v2h6v6h2v-6h6v-2z"/> </symbol><symbol viewBox="0 0 32 32" id="icon-googleplus2"><title>Google Plus</title> <g id="svgstore43b7e3ac53c712c07662dac27816b3cficomoon-ignore"> <line stroke-width="1" x1="" y1="" x2="" y2="" stroke="#449FDB" opacity=""/> </g> <path d="M0.025 27.177c-0.008-0.079-0.014-0.158-0.018-0.238 0.004 0.080 0.011 0.159 0.018 0.238zM7.372 17.661c2.875 0.086 4.804-2.897 4.308-6.662s-3.231-6.787-6.106-6.873c-2.876-0.085-4.804 2.796-4.308 6.562 0.496 3.765 3.23 6.887 6.106 6.973zM32 8v-2.666c0-2.934-2.399-5.334-5.333-5.334h-21.333c-2.884 0-5.25 2.32-5.33 5.185 1.824-1.606 4.354-2.947 6.965-2.947 2.791 0 11.164 0 11.164 0l-2.498 2.113h-3.54c2.348 0.9 3.599 3.629 3.599 6.429 0 2.351-1.307 4.374-3.153 5.812-1.801 1.403-2.143 1.991-2.143 3.184 0 1.018 1.93 2.75 2.938 3.462 2.949 2.079 3.904 4.010 3.904 7.233 0 0.513-0.064 1.026-0.19 1.53h9.617c2.934 0 5.333-2.398 5.333-5.334v-16.666h-6v6h-2v-6h-6v-2h6v-6h2v6h6zM5.809 23.936c0.675 0 1.294-0.018 1.936-0.018-0.848-0.823-1.52-1.831-1.52-3.074 0-0.738 0.236-1.448 0.567-2.079-0.337 0.024-0.681 0.031-1.035 0.031-2.324 0-4.297-0.752-5.756-1.995v2.101l0 6.304c1.67-0.793 3.653-1.269 5.809-1.269zM0.107 27.727c-0.035-0.171-0.061-0.344-0.079-0.52 0.018 0.176 0.045 0.349 0.079 0.52zM14.233 29.776c-0.471-1.838-2.139-2.749-4.465-4.361-0.846-0.273-1.778-0.434-2.778-0.444-2.801-0.030-5.41 1.092-6.882 2.762 0.498 2.428 2.657 4.267 5.226 4.267h8.951c0.057-0.348 0.084-0.707 0.084-1.076 0-0.392-0.048-0.775-0.137-1.148z"/> </symbol><symbol viewBox="0 0 32 32" id="icon-googleplus3"><title>Google Plus</title> <g id="svgstore7e0761b1ea8051de56d01b6ef9757c4eicomoon-ignore"> <line stroke-width="1" x1="" y1="" x2="" y2="" stroke="#449FDB" opacity=""/> </g> <path d="M13.656 25.568c0 2.346-1.45 4.2-5.555 4.349-2.406-1.368-4.422-3.342-5.841-5.715 0.74-1.828 3.053-3.22 5.697-3.191 0.751 0.008 1.45 0.129 2.086 0.334 1.747 1.215 3.156 1.974 3.51 3.358 0.066 0.28 0.103 0.569 0.103 0.864zM16 0c-4.623 0-8.787 1.962-11.708 5.097 1.154-0.639 2.517-1.020 3.966-1.020 2.096 0 8.014 0 8.014 0l-1.791 1.879h-2.103c1.484 0.85 2.274 2.601 2.274 4.532 0 1.772-0.982 3.199-2.368 4.283-1.352 1.056-1.609 1.499-1.609 2.398 0 0.767 1.616 1.909 2.359 2.467 2.588 1.941 3.112 3.162 3.112 5.59 0 2.46-2.154 4.91-5.808 5.742 1.761 0.667 3.67 1.033 5.664 1.033 8.837 0 16-7.163 16-16s-7.163-16-16-16zM24 12v4h-2v-4h-4v-2h4v-4h2v4h4v2h-4zM11.43 10.608c0.373 2.837-0.87 4.662-3.029 4.598-2.16-0.065-4.213-2.047-4.586-4.883-0.373-2.837 1.076-5.008 3.235-4.944s4.007 2.392 4.379 5.228zM6.903 20.065c-2.334 0-4.316 0.805-5.714 1.996-0.766-1.869-1.189-3.915-1.189-6.060 0-1.774 0.289-3.48 0.822-5.075 0.23 3.108 2.417 5.506 6.030 5.506 0.266 0 0.524-0.014 0.777-0.032-0.248 0.476-0.426 1.006-0.426 1.562 0 0.937 0.515 1.471 1.152 2.090-0.481 0-0.946 0.013-1.454 0.013z"/> </symbol><symbol viewBox="0 0 32 32" id="icon-instagram"><title>Instagram</title> <g id="svgstore250b91fbd90403e9b37bf3cb188cec54icomoon-ignore"> <line stroke-width="1" x1="" y1="" x2="" y2="" stroke="#449FDB" opacity=""/> </g> <path d="M26.688 0h-21.375c-2.922 0-5.313 2.391-5.313 5.313v21.375c0 2.922 2.391 5.313 5.313 5.313h21.375c2.922 0 5.313-2.391 5.313-5.313v-21.375c0-2.922-2.391-5.313-5.313-5.313zM10.244 14h11.513c0.218 0.627 0.337 1.3 0.337 2 0 3.36-2.734 6.094-6.094 6.094s-6.094-2.734-6.094-6.094c0-0.7 0.119-1.373 0.338-2zM28 14.002v11.998c0 1.1-0.9 2-2 2h-20c-1.1 0-2-0.9-2-2v-12h3.128c-0.145 0.644-0.222 1.313-0.222 2 0 5.014 4.079 9.094 9.094 9.094s9.094-4.079 9.094-9.094c0-0.687-0.077-1.356-0.222-2l3.128 0.002zM28 7c0 0.55-0.45 1-1 1h-2c-0.55 0-1-0.45-1-1v-2c0-0.55 0.45-1 1-1h2c0.55 0 1 0.45 1 1v2z"/> </symbol><symbol viewBox="0 0 100 100" id="icon-instapaper"><title>Instapaper</title> <path id="svgstoref8f4b609879bb4aeed6093b972568609Instapaper" d="M69,92.475c-5.5-0.396-9.066-1.219-10.693-2.477c-1.627-1.252-2.441-4.504-2.441-9.742v-60.51
	c0-5.004,0.814-8.224,2.441-9.664S63.5,7.789,69,7.523V5H29v2.523c5.5,0.266,9.064,1.12,10.695,2.559
	c1.628,1.439,2.441,4.66,2.441,9.664v60.51c0,5.238-0.813,8.49-2.441,9.742C38.064,91.256,34.5,92.078,29,92.475V95h40V92.475z"/> </symbol><symbol viewBox="0 0 100 100" id="icon-linkedin"><title>LinkedIn</title> <path id="svgstore1e85d14810bd997d4b410cd5dcfa4f2dLinkedIn" d="M95,59.727V93H75.71V61.955c0-7.799-2.79-13.121-9.773-13.121c-5.33,0-8.502,3.587-9.897,7.056
	c-0.509,1.241-0.64,2.967-0.64,4.704V93H36.104c0,0,0.26-52.58,0-58.028h19.295v8.225c-0.039,0.062-0.09,0.128-0.127,0.188h0.127
	v-0.188c2.563-3.948,7.141-9.588,17.388-9.588C85.483,33.609,95,41.903,95,59.727z M15.919,7C9.318,7,5,11.33,5,17.024
	c0,5.57,4.193,10.031,10.663,10.031h0.129c6.729,0,10.914-4.46,10.914-10.031C26.579,11.33,22.521,7,15.919,7z M6.146,93h19.289
	V34.972H6.146V93z"/> </symbol><symbol viewBox="0 0 32 32" id="icon-linkedin2"><title>LinkedIn</title> <g id="svgstore6f886b3314e16559bdae7e69e6973152icomoon-ignore"> <line stroke-width="1" x1="" y1="" x2="" y2="" stroke="#449FDB" opacity=""/> </g> <path d="M26.625 0h-21.25c-2.956 0-5.375 2.419-5.375 5.375v21.25c0 2.956 2.419 5.375 5.375 5.375h21.25c2.956 0 5.375-2.419 5.375-5.375v-21.25c0-2.956-2.419-5.375-5.375-5.375zM12 26h-4v-14h4v14zM10 10c-1.105 0-2-0.895-2-2s0.895-2 2-2 2 0.895 2 2-0.895 2-2 2zM26 26h-4v-8c0-1.105-0.895-2-2-2s-2 0.895-2 2v8h-4v-14h4v2.483c0.825-1.133 2.086-2.483 3.5-2.483 2.485 0 4.5 2.239 4.5 5v9z"/> </symbol><symbol viewBox="0 0 100 100" id="icon-meetup"><title>MeetUp</title> <path id="svgstorec9fb2693eca1f81c9daeee16f64bbb64Meetup" style="fill-rule:evenodd;clip-rule:evenodd;" d="M46.117,51.323c-0.301,0-0.604-0.024-0.828-0.339
	c0.068-1.191,0.457-2.081,0.835-2.94c0.169-0.387,0.339-0.772,0.477-1.187l0.169-0.489l0.139,0.496
	c0.327,1.151,0.223,3.296-0.283,4.45L46.117,51.323z M83.713,43.804l-0.151,0.141c-2.571,2.424-3.503,6.539-4.175,10.204
	c2.145-0.58,3.968-2.562,4.755-4.742c0.48-1.331,0.811-3.353-0.328-5.422L83.713,43.804z M36.748,50.408
	c0.135,0.053,0.288,0.115,0.501,0.115l0.107-0.022l0.26-0.128c0.202-0.986,0.139-2.263-0.169-3.504
	c-0.791,0.898-1.274,1.946-1.457,3.287l-0.024,0.182l0.402-0.021C36.518,50.316,36.625,50.356,36.748,50.408z M95,73.785
	C95,75.561,93.561,77,91.785,77H8.215C6.439,77,5,75.561,5,73.785v-47.57C5,24.439,6.439,23,8.215,23h83.57
	C93.561,23,95,24.439,95,26.215V73.785z M32.03,56.304c-0.892-2.458-1.47-5.244-2.025-7.972c-0.719-3.505-1.459-7.064-2.716-9.842
	c-0.149,0.014-0.297,0.152-0.439,0.152c-0.444,0-0.831,0.105-1.217,0.043C25.266,38.621,24.898,39,24.464,39
	c-0.04,0-0.084,0-0.124,0c-0.113,0-0.215-0.441-0.264-0.473c-2.004,2.711-2.693,6.371-3.599,10.082
	c-0.501-0.879-0.96-1.781-1.415-2.704c-0.804-1.622-1.635-3.288-2.577-4.623c-0.264-0.022-0.521-0.024-0.767-0.024
	c-1.079,0-2.058,0.194-2.978,0.462l-0.047,2.491c-0.101,4.277-0.187,7.97,0.891,11.457c0.2,0.033,0.404,0.05,0.606,0.05
	c1.292,0,2.435-0.631,2.931-0.884c0.079-1.094-0.057-1.947-0.197-2.854c-0.075-0.464-0.151-0.932,0.095-1.54
	c0.749,0.972,1.408,2.039,2.064,3.104c0.418,0.675,0.836,1.347,1.156,1.927c0.216,0.022,0.42,0.031,0.615,0.031
	c0.505,0,0.951-0.063,1.396-0.123c0.463-0.062,0.921-0.121,1.445-0.121l0.297,0.108c0.594-1.318,0.626-3.257,0.657-5.134
	c0.028-1.722,0.059-3.5,0.824-4.825c0.835,3.848,1.973,7.586,3.472,11.422c0.527-0.072,1.111-0.253,1.651-0.42
	c0.402-0.125,0.766-0.243,1.055-0.243C31.798,56.166,31.926,56.231,32.03,56.304z M42.382,57.11
	c-0.288-0.522-0.703-0.765-1.294-0.765c-0.452,0-0.967,0.128-1.463,0.264c-0.508,0.137-1.029,0.268-1.499,0.268
	c-0.13,0-0.251-0.032-0.371-0.057c-0.565-0.107-1.022-0.461-1.354-0.953c-0.6-0.893-0.747-2.355-0.209-4.137
	C37.059,51.965,38.15,52,39.344,52c0.101,0,0.197,0,0.294,0c0.306,0,0.585,0.098,0.767,0.172c0.587-2.385,0.271-5.636-0.2-7.506
	c-0.364-0.076-0.688-0.209-1.011-0.32c-0.566-0.195-1.096-0.385-1.821-0.385c-0.125,0-0.255-0.006-0.384,0.009
	c-2.297,0.308-3.859,3.53-4.215,6.557c-0.33,2.794,0.272,6.148,2.944,7.179c0.55,0.212,1.234,0.318,2.03,0.318
	C39.337,58.023,41.18,57.578,42.382,57.11z M51.498,56.429c-0.145-0.479-0.56-0.744-1.178-0.936
	c-0.524,0.813-1.34,1.264-2.305,1.264c-1.025,0-2.043-0.521-2.654-1.362c-0.584-0.803-0.727-1.805-0.211-2.925
	c0.828,0.169,1.638,0.323,2.393,0.323c0.627,0,1.191-0.1,1.666-0.154c-0.147-1.835,0.066-3.122,0.292-4.484
	c0.188-1.138,0.383-2.312,0.424-3.733c-1.046-0.791-2.159-1.195-3.4-1.305c-3.063,2.342-4.485,5.931-4.351,10.944
	c0.419,2.217,3.34,3.588,5.809,3.588C49.488,57.648,50.751,57.159,51.498,56.429z M62.109,49.556
	c-0.38-0.305-0.703-0.663-1.026-1.027c-0.611-0.684-1.188-1.33-2.127-1.582c-0.195,0.004-0.233,0.146-0.255,0.579
	c-0.02,0.348-0.048,0.884-0.58,0.884l-0.365,0.004l0.016-0.127c0.13-1.554,0.016-3.344-0.109-5.328
	c-0.172-2.813-0.352-5.444,0.147-7.823C57.191,34.393,56.247,34,54.419,34c-0.024,0-0.046,0-0.068,0
	c-0.151,0-0.288-0.469-0.329-0.551c-0.941,2.895-0.484,6.067-0.042,9.534c0.255,1.978,0.494,3.823,0.202,5.613
	c-0.362,0-0.729-0.045-1.084-0.073c-0.316-0.027-0.628-0.06-0.907-0.06c-0.524,0-0.837,0.091-1.026,0.305
	c-0.213,0.239-0.276,0.648-0.264,1.142c0.722,0.496,1.972,0.53,3.18,0.561l0.761,0.173c0.033,1.057,0.116,2.065,0.197,3.076
	c0.123,1.479,0.244,3.009,0.214,4.676c0.32-0.044,0.608-0.06,0.888-0.077c0.54-0.035,1.052-0.067,1.632-0.136
	c-0.018-1.18-0.062-2.305-0.104-3.388c-0.057-1.513-0.113-2.949,0.019-4.501c0.535-0.153,1.184-0.188,1.81-0.222
	C60.547,50.013,61.633,49.954,62.109,49.556z M73.267,47.677C72.516,47.062,71.584,46,70.522,46c-0.084,0-0.167,0-0.241,0
	c-0.114,0-0.211,0.291-0.264,0.238l-0.026,1.109c-0.071,3.041-0.172,7.254-3.081,8.265c-0.277-1.826-0.352-3.82-0.422-5.604
	c-0.037-0.951-0.072-1.813-0.04-2.416c-0.283-0.136-0.544-0.282-0.8-0.438c-0.723-0.434-1.403-0.839-2.502-0.983
	c-0.438,5.229,0.088,8.692,1.56,10.29c0.606,0.659,1.387,0.996,2.32,0.996c0.655,0,1.399-0.161,2.138-0.423l0.281-0.433
	c0.525-0.804,0.87-1.338,1.655-1.934c0.2-0.358,0.413-0.8,0.63-1.143C72.691,51.982,73.599,50.334,73.267,47.677z M87.31,42.754
	c-1.602-0.938-2.997-1.39-4.27-1.39c-1.584,0-2.957,0.712-4.199,2.181c-2.338,2.76-2.825,8.507-3.161,11.401
	c-0.141,0.06-0.295,0.107-0.451,0.151c-0.406,0.121-0.788,0.235-0.934,0.424c1.229,1.424,1.47,3.839,1.705,6.17
	c0.183,1.8,0.367,3.661,0.895,4.925c0.292,0.063,0.703,0.096,1.255,0.096c0.259,0,0.531-0.008,0.802-0.008
	c0.457,0,0.907,0.02,1.264,0.129c-0.851-2.146-1.183-5.054-0.919-9.303c3.468-0.82,6.551-3.281,8.042-6.423
	C88.239,49.209,88.955,46.207,87.31,42.754z"/> </symbol><symbol viewBox="0 0 100 100" id="icon-openid"><title>OpenID</title> <path id="svgstore1808934157bb7ac7eeba1057799ee80aOpenID" d="M86.225,41.214c-8.834-4.992-17.771-7.794-26.326-8.892V9l-13.65,8.786v14.181
	c-42.302,3.305-66.39,46.948,0,59.033l13.65-8.786V41.515c5.478,0.95,11.357,2.739,17.552,5.556l-7.802,4.883H95V35.357
	L86.225,41.214z M46.248,40.839v41.375C5.109,76.876,14.566,43.526,46.248,40.839z"/> </symbol><symbol viewBox="0 0 100 100" id="icon-photobucket"><title>Photo Bucket</title> <path id="svgstore03c06a7e4c259d3865bb505346da7abfPhotobucket" d="M90.909,21.562H65.827C61.138,18.978,55.744,17.5,50,17.5s-11.138,1.478-15.829,4.062h-8.717
	c0-2.234-1.841-4.062-4.091-4.062h-8.183c-2.248,0-4.09,1.827-4.09,4.062l0,0C6.842,21.562,5,23.392,5,25.624v48.752
	c0,2.232,1.842,4.063,4.091,4.063h25.08C38.862,81.021,44.256,82.5,50,82.5s11.138-1.479,15.827-4.062h25.082
	c2.249,0,4.091-1.83,4.091-4.063V25.624C95,23.392,93.158,21.562,90.909,21.562z M9.091,74.376V25.624h4.09h8.183h7.04
	C21.596,31.579,17.273,40.28,17.273,50s4.322,18.421,11.13,24.376H9.091z M64.693,74.376c-2.109,1.257-4.395,2.254-6.808,2.943
	c-0.145,0.04-0.287,0.071-0.428,0.111c-0.979,0.266-1.984,0.469-3.004,0.627c-0.279,0.047-0.559,0.095-0.844,0.131
	c-1.181,0.15-2.384,0.25-3.61,0.25s-2.43-0.1-3.612-0.25c-0.283-0.036-0.563-0.084-0.842-0.131c-1.02-0.158-2.025-0.361-3.004-0.627
	c-0.141-0.04-0.285-0.071-0.428-0.111c-2.413-0.689-4.698-1.687-6.808-2.943C26.964,69.407,21.363,60.362,21.363,50
	s5.601-19.407,13.943-24.376c2.109-1.257,4.395-2.254,6.808-2.943c0.143-0.04,0.287-0.072,0.428-0.111
	c0.979-0.262,1.98-0.469,3-0.627c0.283-0.047,0.566-0.095,0.851-0.131c1.182-0.15,2.384-0.25,3.607-0.25
	c1.222,0,2.426,0.1,3.607,0.25c0.284,0.036,0.567,0.084,0.851,0.131c1.02,0.158,2.021,0.365,3,0.627
	c0.141,0.039,0.283,0.071,0.428,0.111c2.413,0.689,4.698,1.687,6.808,2.943C73.034,30.593,78.637,39.638,78.637,50
	S73.034,69.407,64.693,74.376z M90.909,74.376H71.597C78.404,68.421,82.727,59.72,82.727,50s-4.322-18.421-11.13-24.376h19.313
	V74.376z M72.504,50h-3.463c0-10.427-8.542-18.909-19.041-18.909v-3.439C62.408,27.651,72.504,37.678,72.504,50z"/> </symbol><symbol viewBox="0 0 100 100" id="icon-picasa"><title>Picasa</title> <path id="svgstore4beb7642a2f44116092843f60216f714Picassa" d="M31.564,69.689c0.966,0,57.23,0,58.859,0C83.527,83.946,69.649,93.549,54.103,95h-8.249
	c-4.931-0.46-9.715-1.736-14.289-3.791C31.564,90.563,31.564,70.625,31.564,69.689z M68.553,9.043C62.683,6.371,56.44,5,49.998,5
	c-5.362,0-10.64,1.035-15.713,2.941c1.189,1.081,32.735,29.77,34.268,31.168C68.553,37.043,68.553,9.678,68.553,9.043z
	 M29.497,10.002C14.386,17.771,5,33.092,5,50.094c0,3.872,0.583,7.809,1.637,11.712c1.222-1.112,39.108-35.602,39.889-36.316
	C45.764,24.798,30.007,10.467,29.497,10.002z M26.837,88.606c0-1.761,0-36.695,0-38.772C25.335,51.205,8.761,66.298,8.244,66.768
	C11.852,75.83,18.435,83.52,26.837,88.606z M73.3,11.627c0,1.793,0,52.352,0,53.311c0.924,0,18.434,0,19.15,0
	c1.674-4.8,2.55-9.795,2.55-14.844C95,34.423,86.685,19.793,73.3,11.627z"/> </symbol><symbol viewBox="0 0 32 32" id="icon-pinterest"><title>Pinterest</title> <g id="svgstore8c6caa103fe500de0194c045ecffe8f0icomoon-ignore"> <line stroke-width="1" x1="" y1="" x2="" y2="" stroke="#449FDB" opacity=""/> </g> <path d="M16 0c-8.837 0-16 7.163-16 16s7.163 16 16 16c8.837 0 16-7.163 16-16s-7.163-16-16-16zM17.551 21.379c-1.454-0.113-2.064-0.833-3.203-1.525-0.627 3.287-1.393 6.438-3.661 8.084-0.7-4.968 1.028-8.699 1.83-12.66-1.368-2.303 0.165-6.939 3.051-5.796 3.551 1.405-3.075 8.563 1.373 9.457 4.644 0.933 6.54-8.058 3.661-10.982-4.161-4.222-12.112-0.096-11.135 5.949 0.238 1.478 1.765 1.926 0.61 3.966-2.663-0.59-3.458-2.691-3.356-5.491 0.165-4.584 4.118-7.793 8.084-8.236 5.015-0.561 9.722 1.841 10.372 6.559 0.732 5.325-2.264 11.092-7.627 10.677z"/> </symbol><symbol viewBox="0 0 32 32" id="icon-pinterest2"><title>Pinterest</title> <g id="svgstore648dafa9780905513d784b50096cdcddicomoon-ignore"> <line stroke-width="1" x1="" y1="" x2="" y2="" stroke="#449FDB" opacity=""/> </g> <path d="M26.667 0h-21.334c-2.945 0-5.333 2.388-5.333 5.334v21.332c0 2.946 2.387 5.334 5.333 5.334h21.334c2.945 0 5.333-2.388 5.333-5.334v-21.332c0-2.946-2.387-5.334-5.333-5.334zM17.551 21.379c-1.454-0.113-2.064-0.833-3.203-1.525-0.627 3.287-1.393 6.438-3.661 8.084-0.7-4.968 1.028-8.699 1.83-12.66-1.368-2.303 0.165-6.939 3.051-5.796 3.551 1.405-3.075 8.563 1.373 9.457 4.644 0.933 6.54-8.058 3.661-10.982-4.161-4.222-12.112-0.096-11.135 5.949 0.238 1.478 1.765 1.926 0.61 3.966-2.663-0.59-3.458-2.691-3.356-5.491 0.165-4.584 4.118-7.793 8.084-8.236 5.015-0.561 9.722 1.841 10.372 6.559 0.732 5.325-2.264 11.091-7.627 10.677z"/> </symbol><symbol viewBox="0 0 100 100" id="icon-scribd"><title>Scribd</title> <path id="svgstore37bcb5d40c51224dd166bdc706ef5b96Scribd" d="M63.449,85.189c-0.67,0.815-1.385,1.621-2.184,2.388C56.133,92.526,49.916,95,42.615,95
	c-7.109,0-13.398-1.93-18.848-5.803c-5.445-3.872-9.637-9.671-12.572-17.409l0.219-0.062C11.172,70.888,11,70.018,11,69.095
	c0-5.357,4.371-9.699,9.762-9.699c5.393,0,9.76,4.342,9.76,9.699c0,2.751-1.162,5.214-3.004,6.984
	c3.857,4.443,8.744,6.718,14.697,6.718c4.23,0,7.746-1.257,10.545-3.771c2.805-2.51,4.203-5.687,4.203-9.519
	c0-2.295-0.732-4.595-2.201-6.911c-1.471-2.317-3.295-4.223-5.479-5.719c-2.178-1.501-5.656-3.224-10.41-5.159
	c-4.764-1.94-8.42-3.719-10.99-5.329c-2.568-1.617-4.791-3.537-6.666-5.766c-1.867-2.23-3.244-4.453-4.115-6.66
	c-0.869-2.212-1.307-4.574-1.307-7.092c0-6.056,2.447-11.213,7.342-15.476C28.033,7.131,33.971,5,40.951,5
	c4.625,0,9.32,0.995,14.076,2.986c3.959,1.65,7.328,4.063,10.174,7.151c2.037,1.782,3.35,4.36,3.35,7.261
	c0,5.361-4.371,9.703-9.764,9.703c-5.389,0-9.762-4.342-9.762-9.703c0-1.422,0.33-2.761,0.879-3.978
	c-1.961-0.971-4.572-1.483-7.918-1.483c-4.172,0-7.559,0.937-10.152,2.809c-2.598,1.879-3.896,4.287-3.896,7.246
	c0,2.558,1.139,4.813,3.404,6.771c2.266,1.969,6.127,4.113,11.592,6.444c5.461,2.329,9.713,4.5,12.754,6.515
	c3.041,2.008,5.533,4.229,7.492,6.662c1.953,2.43,3.406,4.99,4.359,7.684c0.063,0.17,0.082,0.36,0.141,0.53
	c-4.135,3.421-6.826,8.51-6.826,14.277C60.854,79.285,61.846,82.438,63.449,85.189z M77.742,64.685
	c-6.219,0-11.258,5.012-11.258,11.19s5.039,11.19,11.258,11.19S89,82.054,89,75.875S83.961,64.685,77.742,64.685z"/> </symbol><symbol viewBox="0 0 100 100" id="icon-sharethis"><title>Share This</title> <path id="svgstore6d2765c6082b5b0bf6c403db1fbc968dShareThis" d="M36.764,50c0,0.308-0.07,0.598-0.088,0.905l32.247,16.119c2.76-2.338,6.293-3.797,10.195-3.797
	C87.89,63.228,95,70.338,95,79.109C95,87.89,87.89,95,79.118,95c-8.78,0-15.882-7.11-15.882-15.891c0-0.316,0.07-0.598,0.088-0.905
	L31.077,62.085c-2.769,2.329-6.293,3.788-10.195,3.788C12.11,65.873,5,58.771,5,50c0-8.78,7.11-15.891,15.882-15.891
	c3.902,0,7.427,1.468,10.195,3.797l32.247-16.119c-0.018-0.308-0.088-0.598-0.088-0.914C63.236,12.11,70.338,5,79.118,5
	C87.89,5,95,12.11,95,20.873c0,8.78-7.11,15.891-15.882,15.891c-3.911,0-7.436-1.468-10.195-3.806L36.676,49.086
	C36.693,49.394,36.764,49.684,36.764,50z"/> </symbol><symbol viewBox="0 0 100 100" id="icon-slideshare"><title>Slide Share</title> <path id="svgstoreb598866f4caa3430bbe1490be98fbd13SlideShare" d="M93.62,40.316c-3.437,6.591-10.616,8.598-17.633,12.281c0,5.19,0,12.216,0,14.227
	c0,2.006-2.585,13.676-12.443,13.676c-9.86,0-13.114-5.646-13.114-7.985c0-1.14,0-7.224,0-13.182
	c-0.968-0.233-1.921-0.566-2.839-1.045c0,5.362,0,11.888,0,14.227c0,2.345-3.674,5.69-8.518,5.69
	c-4.844,0-14.198-6.857-14.198-11.381c0-4.519,0-15.404,0-15.404s-12.962-5.074-15.97-8.758c-3.01-3.686-4.513-5.191-3.676-7.362
	c0.804-2.103,10.526,6.023,16.205,7.362c5.685,1.34,15.539,2.011,19.718,1.845c4.179-0.168,6.519,1.506,8.856,3.679
	c0.125,0.116,0.271,0.239,0.421,0.361c0-1,0-1.64,0-1.64c0-2.006,5.347-2.845,8.52-2.845c3.177,0,12.527,0,14.196,0
	s14.625-4.245,17.634-7.597C93.786,33.12,96.853,34.121,93.62,40.316z M63.688,39.417c5.489,0,9.939-4.457,9.939-9.959
	c0-5.501-4.45-9.958-9.939-9.958c-5.487,0-9.938,4.457-9.938,9.958C53.75,34.96,58.201,39.417,63.688,39.417z M37.498,39.417
	c5.489,0,9.939-4.457,9.939-9.959c0-5.501-4.45-9.958-9.939-9.958c-5.489,0-9.938,4.457-9.938,9.958
	C27.56,34.96,32.008,39.417,37.498,39.417z"/> </symbol><symbol viewBox="0 0 32 32" id="icon-stumbleupon"><title>StumbleUpon</title> <g id="svgstore575448600631b6319b625f183fa9a6b6icomoon-ignore"> <line stroke-width="1" x1="" y1="" x2="" y2="" stroke="#449FDB" opacity=""/> </g> <path d="M26.625 0h-21.25c-2.956 0-5.375 2.419-5.375 5.375v21.25c0 2.956 2.419 5.375 5.375 5.375h21.25c2.956 0 5.375-2.419 5.375-5.375v-21.25c0-2.956-2.419-5.375-5.375-5.375zM16 10c-1.103 0-2 0.897-2 2v8c0 3.308-2.692 6-6 6s-6-2.692-6-6v-4h4v4c0 1.103 0.897 2 2 2s2-0.897 2-2v-8c0-3.308 2.692-6 6-6s6 2.692 6 5.563v1.938l-2.563 0.75-1.438-0.75v-1.938c0-0.665-0.897-1.563-2-1.563zM30 20c0 3.308-2.692 6-6 6s-6-2.692-6-6.438v-3.875l1.438 0.75 2.563-0.75v3.875c0 1.54 0.897 2.438 2 2.438s2-0.897 2-2v-4h4v4z"/> </symbol><symbol viewBox="0 0 32 32" id="icon-stumbleupon2"><title>StumbleUpon</title> <g id="svgstoref9cea921044615e3532180340caaf783icomoon-ignore"> <line stroke-width="1" x1="" y1="" x2="" y2="" stroke="#449FDB" opacity=""/> </g> <path d="M16 0c-8.837 0-16 7.163-16 16s7.163 16 16 16 16-7.163 16-16-7.163-16-16-16zM16 8c-1.103 0-2 0.897-2 2v8c0 3.308-2.692 6-6 6s-6-2.692-6-6v-4h4v4c0 1.103 0.897 2 2 2s2-0.897 2-2v-8c0-3.308 2.692-6 6-6s6 2.692 6 5.563v1.938l-2.563 0.75-1.438-0.75v-1.938c0-0.665-0.897-1.563-2-1.563zM24 24c-3.308 0-6-2.692-6-6.438v-3.875l1.438 0.75 2.563-0.75v3.875c0 1.54 0.897 2.438 2 2.438s2-0.897 2-2v-4h4v4c0 3.308-2.692 6-6 6z"/> </symbol><symbol viewBox="0 0 32 32" id="icon-tumblr"><title>Tumblr</title> <g id="svgstoref25abb54cc94538f77e5ac02df382ebcicomoon-ignore"> <line stroke-width="1" x1="" y1="" x2="" y2="" stroke="#449FDB" opacity=""/> </g> <path d="M18.001 14l-0 7.318c0 1.857-0.024 2.927 0.173 3.453 0.195 0.524 0.685 1.067 1.218 1.381 0.709 0.425 1.517 0.637 2.428 0.637 1.62 0 2.577-0.214 4.179-1.267v4.811c-1.366 0.642-2.558 1.019-3.666 1.279-1.109 0.258-2.308 0.388-3.596 0.388-1.463 0-2.327-0.184-3.45-0.552-1.124-0.371-2.083-0.9-2.876-1.579-0.795-0.685-1.344-1.413-1.652-2.182s-0.46-1.888-0.46-3.351v-11.222h-4.295v-4.531c1.256-0.408 2.661-0.993 3.556-1.755 0.899-0.764 1.618-1.678 2.16-2.748 0.543-1.067 0.917-2.429 1.121-4.079h5.159l-0 8h7.999v6h-7.999z"/> </symbol><symbol viewBox="0 0 32 32" id="icon-tumblr2"><title>Tumblr</title> <g id="svgstore10416af170734c31f99c11fd58fffcfficomoon-ignore"> <line stroke-width="1" x1="" y1="" x2="" y2="" stroke="#449FDB" opacity=""/> </g> <path d="M26.668 0h-21.334c-2.934 0-5.334 2.4-5.334 5.334v21.332c0 2.936 2.4 5.334 5.334 5.334h21.334c2.933 0 5.332-2.398 5.332-5.334v-21.332c-0-2.933-2.399-5.334-5.332-5.334zM22.866 25.771c-0.942 0.443-1.798 0.756-2.563 0.936-0.765 0.178-1.593 0.267-2.481 0.267-1.010 0-1.605-0.127-2.381-0.381-0.775-0.256-1.438-0.621-1.984-1.090-0.549-0.473-0.928-0.975-1.14-1.506s-0.317-1.303-0.317-2.313v-7.744h-3v-3.127c0.867-0.281 1.873-0.685 2.49-1.211 0.62-0.527 1.116-1.158 1.49-1.896 0.375-0.736 0.633-1.676 0.774-2.815h3.141v5.108h5.105v3.941h-5.106v5.662c0 1.281-0.017 2.020 0.119 2.383 0.135 0.361 0.473 0.736 0.841 0.953 0.489 0.293 1.047 0.439 1.676 0.439 1.118 0 2.231-0.363 3.336-1.090v3.482z"/> </symbol><symbol viewBox="0 0 32 32" id="icon-twitter"><title>Twitter</title> <g id="svgstore2b1da114099fce7ed193b97eed02c466icomoon-ignore"> <line stroke-width="1" x1="" y1="" x2="" y2="" stroke="#449FDB" opacity=""/> </g> <path d="M32 6.076c-1.177 0.522-2.443 0.875-3.771 1.034 1.355-0.813 2.396-2.099 2.887-3.632-1.269 0.752-2.674 1.299-4.169 1.593-1.198-1.276-2.904-2.073-4.792-2.073-3.626 0-6.565 2.939-6.565 6.565 0 0.515 0.058 1.016 0.17 1.496-5.456-0.274-10.294-2.888-13.532-6.86-0.565 0.97-0.889 2.097-0.889 3.301 0 2.278 1.159 4.287 2.921 5.465-1.076-0.034-2.088-0.329-2.974-0.821-0.001 0.027-0.001 0.055-0.001 0.083 0 3.181 2.263 5.834 5.266 6.437-0.551 0.15-1.131 0.23-1.73 0.23-0.423 0-0.834-0.041-1.235-0.118 0.835 2.608 3.26 4.506 6.133 4.559-2.247 1.761-5.078 2.81-8.154 2.81-0.53 0-1.052-0.031-1.566-0.092 2.905 1.863 6.356 2.95 10.064 2.95 12.076 0 18.679-10.004 18.679-18.68 0-0.285-0.006-0.568-0.019-0.849 1.283-0.926 2.396-2.082 3.276-3.398z"/> </symbol><symbol viewBox="0 0 32 32" id="icon-twitter2"><title>Twitter</title> <g id="svgstore166208c9b254c8597cd45b892973acaficomoon-ignore"> <line stroke-width="1" x1="" y1="" x2="" y2="" stroke="#449FDB" opacity=""/> </g> <path d="M26.667 0h-21.333c-2.934 0-5.334 2.4-5.334 5.334v21.332c0 2.936 2.4 5.334 5.334 5.334h21.333c2.934 0 5.333-2.398 5.333-5.334v-21.332c0-2.934-2.399-5.334-5.333-5.334zM26.189 10.682c0.010 0.229 0.015 0.46 0.015 0.692 0 7.069-5.288 15.221-14.958 15.221-2.969 0-5.732-0.886-8.059-2.404 0.411 0.050 0.83 0.075 1.254 0.075 2.463 0 4.73-0.855 6.529-2.29-2.3-0.043-4.242-1.59-4.911-3.715 0.321 0.063 0.65 0.096 0.989 0.096 0.479 0 0.944-0.066 1.385-0.188-2.405-0.492-4.217-2.654-4.217-5.245 0-0.023 0-0.045 0-0.067 0.709 0.401 1.519 0.641 2.381 0.669-1.411-0.959-2.339-2.597-2.339-4.453 0-0.98 0.259-1.899 0.712-2.689 2.593 3.237 6.467 5.366 10.836 5.589-0.090-0.392-0.136-0.8-0.136-1.219 0-2.954 2.354-5.349 5.257-5.349 1.512 0 2.879 0.65 3.838 1.689 1.198-0.24 2.323-0.685 3.338-1.298-0.393 1.249-1.226 2.298-2.311 2.96 1.063-0.129 2.077-0.417 3.019-0.842-0.705 1.073-1.596 2.015-2.623 2.769z"/> </symbol><symbol viewBox="0 0 32 32" id="icon-twitter3"><title>Twitter</title> <g id="svgstore21a4bc29b2a53359685371281b43cf3bicomoon-ignore"> <line stroke-width="1" x1="" y1="" x2="" y2="" stroke="#449FDB" opacity=""/> </g> <path d="M16 0c-8.837 0-16 7.163-16 16s7.163 16 16 16 16-7.163 16-16-7.163-16-16-16zM25.195 11.284c0.009 0.203 0.014 0.408 0.014 0.614 0 6.269-4.772 13.499-13.499 13.499-2.679 0-5.173-0.785-7.273-2.132 0.371 0.044 0.749 0.066 1.132 0.066 2.223 0 4.268-0.759 5.892-2.031-2.076-0.038-3.828-1.41-4.432-3.295 0.29 0.055 0.587 0.085 0.893 0.085 0.433 0 0.852-0.058 1.25-0.166-2.17-0.436-3.806-2.354-3.806-4.652 0-0.020 0-0.040 0-0.060 0.64 0.355 1.371 0.569 2.149 0.593-1.273-0.851-2.111-2.303-2.111-3.949 0-0.869 0.234-1.684 0.642-2.385 2.34 2.87 5.836 4.759 9.779 4.957-0.081-0.347-0.123-0.709-0.123-1.081 0-2.62 2.124-4.744 4.744-4.744 1.365 0 2.598 0.576 3.463 1.498 1.081-0.213 2.096-0.608 3.013-1.151-0.354 1.108-1.107 2.038-2.086 2.625 0.96-0.115 1.874-0.37 2.725-0.747-0.636 0.951-1.44 1.787-2.367 2.456z"/> </symbol><symbol viewBox="0 0 100 100" id="icon-vcard"><title>vCard</title> <path id="svgstore5f8e71cd3c7979f3197a34eae1b89d7dvCard" d="M91.656,76.936c-0.016-3.834-2.705-3.926-5.918-5.211l-15-6.008c-0.261-0.102-0.518-0.211-0.772-0.324v-0.006
	c-2.667-1.207-5.021-2.887-5.884-4.068l-0.034-0.038l-0.01-0.019c-0.049-0.076-0.102-0.154-0.148-0.229l-0.034-0.062l-0.006-0.016
	l-0.031-0.038v-0.002c-0.4-0.601-0.804-0.87-1.145-0.754l-0.021,0.009l-0.01,0.003l-0.003,0.002l-0.019,0.008l-0.013,0.003
	l-0.019,0.017c-0.406,0.211-0.325-0.02-0.49-0.467c-0.406-1.096-1.076-3.184-1.177-3.491c-0.156-0.572-0.575,0.903-0.479-0.688
	l0.171-2.879c0.276-0.297,0.499-0.539,0.651-0.706c0.977-1.118,1.045-4.07,1.535-4.79c0.49-0.721,1.471-0.876,2.45-4.227
	c0.98-3.354,2.175-8.143,0.915-8.221c-0.31-0.021-0.66,0.18-1.023,0.499c0.221-1.231,0.688-4.024,0.794-6.085
	c0.14-2.715-0.31-9.678-1.854-12.229c-0.965-1.595-2.913-3.175-4.854-4.407c-1.163-0.742-2.323-1.355-3.272-1.771
	c-2.827-1.254-11.74-0.678-14.758,0c-3.439,0.77-5.849,2.928-7.389,5.48c-1.538,2.555-2.221,10.213-2.087,12.928
	c0.065,1.218,0.794,3.273,0.979,4.527c0.105,0.654,0.202,0.659,0.284,1.127c-0.129-0.049-0.253-0.076-0.369-0.068
	c-1.261,0.078-0.069,4.867,0.91,8.221c0.982,3.351,1.958,3.506,2.45,4.227c0.49,0.72,0.559,3.672,1.542,4.79
	c0.155,0.177,0.391,0.435,0.684,0.747l0.187,2.348l0.33,1.307c-0.151-0.376-0.449-0.618-0.589-0.128
	c-0.422,1.282-0.844,2.565-1.266,3.847c-0.044-0.063-0.113-0.104-0.192-0.109c-0.409-0.361-0.958-0.047-1.458,0.786
	c-0.741,1.235-3.194,3.011-6.039,4.296l-0.04,0.154l-0.04,0.152l-0.015,0.061c-0.225,0.1-0.449,0.195-0.678,0.285l-15.001,6.008
	c-3.209,1.285-5.901,1.377-5.918,5.211L5,90h90L91.656,76.936z"/> </symbol><symbol viewBox="0 0 32 32" id="icon-vimeo"><title>Vimeo</title> <g id="svgstore1001b5e43a06fd1f71479c1c5b67b54eicomoon-ignore"> <line stroke-width="1" x1="" y1="" x2="" y2="" stroke="#449FDB" opacity=""/> </g> <path d="M0 9.637l1.3 1.704c0 0 2.68-2.113 3.574-1.056s4.304 13.811 5.443 16.164c0.994 2.063 3.735 4.791 6.741 2.843 3.004-1.948 12.995-10.478 14.783-20.55 1.787-10.070-12.023-7.96-13.485 0.813 3.656-2.195 5.607 0.892 3.737 4.387-1.867 3.491-3.574 5.769-4.467 5.769-0.892 0-1.578-2.337-2.6-6.42-1.056-4.222-1.050-11.827-5.441-10.965-4.141 0.813-9.584 7.312-9.584 7.312z"/> </symbol><symbol viewBox="0 0 32 32" id="icon-vimeo2"><title>Vimeo</title> <g id="svgstore4461bbde12498c4897696028a0f212e6icomoon-ignore"> <line stroke-width="1" x1="" y1="" x2="" y2="" stroke="#449FDB" opacity=""/> </g> <path d="M26.666 0h-21.332c-2.934 0-5.334 2.401-5.334 5.334v21.332c0 2.936 2.4 5.334 5.334 5.334h21.332c2.934 0 5.334-2.398 5.334-5.334v-21.332c0-2.934-2.4-5.334-5.334-5.334zM25.402 13.691c-1.061 5.978-6.991 11.041-8.774 12.197s-3.411-0.463-4.001-1.687c-0.675-1.397-2.7-8.967-3.23-9.594-0.53-0.626-2.121 0.627-2.121 0.627l-0.772-1.012c0 0 3.231-3.858 5.689-4.34 2.606-0.511 2.603 4.002 3.229 6.508 0.606 2.424 1.014 3.811 1.543 3.811 0.53 0 1.543-1.352 2.652-3.424 1.111-2.074-0.048-3.907-2.218-2.603 0.868-5.208 9.064-6.46 8.004-0.483z"/> </symbol><symbol viewBox="0 0 32 32" id="icon-vimeo3"><title>Vimeo</title> <g id="svgstoreb56bc3a950d528ba44d6e43af8bb3f22icomoon-ignore"> <line stroke-width="1" x1="" y1="" x2="" y2="" stroke="#449FDB" opacity=""/> </g> <path d="M16 0c-8.837 0-16 7.163-16 16s7.163 16 16 16 16-7.163 16-16-7.163-16-16-16zM25.402 13.691c-1.061 5.978-6.991 11.041-8.774 12.197s-3.411-0.463-4.001-1.687c-0.675-1.397-2.7-8.967-3.23-9.594-0.53-0.626-2.121 0.627-2.121 0.627l-0.772-1.012c0 0 3.231-3.858 5.689-4.34 2.606-0.511 2.603 4.002 3.229 6.508 0.606 2.424 1.014 3.811 1.543 3.811 0.53 0 1.543-1.352 2.652-3.424 1.111-2.074-0.048-3.907-2.218-2.603 0.868-5.208 9.064-6.46 8.004-0.483z"/> </symbol><symbol viewBox="0 0 100 100" id="icon-wordpress"><title>Wordpress</title> <path id="svgstoree7dfc7f8fcf6df17533908ccfcae1615WordPress" d="M5,50c0,24.855,20.145,45,45,45c24.849,0,45-20.145,45-45C95,25.151,74.849,5,50,5C25.145,5,5,25.151,5,50z
	 M8.468,50c0-6.021,1.296-11.735,3.597-16.903l19.811,54.278C18.024,80.65,8.468,66.438,8.468,50z M50,91.531
	c-4.076,0-8.014-0.594-11.734-1.686L50.73,53.639L63.496,88.61c0.083,0.206,0.185,0.389,0.293,0.565
	C59.476,90.699,54.833,91.531,50,91.531z M83.565,49.221c2.369-5.925,3.161-10.662,3.161-14.874c0-1.529-0.102-2.948-0.287-4.273
	c3.242,5.919,5.086,12.704,5.086,19.927c0,15.324-8.301,28.698-20.644,35.893L83.565,49.221z M74.609,36.449
	c1.577,2.765,3.427,6.32,3.427,11.455c0,3.557-1.058,8.028-3.161,13.428l-4.144,13.836L55.721,30.53
	c2.505-0.136,4.751-0.396,4.751-0.396c2.239-0.266,1.972-3.549-0.26-3.426c0,0-6.73,0.531-11.072,0.531
	c-4.082,0-10.936-0.531-10.936-0.531c-2.239-0.123-2.499,3.296-0.266,3.426c0,0,2.123,0.26,4.362,0.396l6.464,17.729l-9.086,27.252
	L24.551,30.53c2.505-0.136,4.757-0.396,4.757-0.396c2.24-0.266,1.966-3.549-0.266-3.426c0,0-6.724,0.531-11.072,0.531
	c-0.778,0-1.693-0.02-2.669-0.048C22.729,15.916,35.494,8.469,50,8.469c10.813,0,20.657,4.136,28.043,10.908
	c-0.178-0.014-0.355-0.035-0.533-0.035c-4.089,0-6.977,3.551-6.977,7.367C70.534,30.135,72.507,33.03,74.609,36.449z"/> </symbol><symbol viewBox="0 0 100 100" id="icon-wordpress_alt"><title>Wordpress</title> <path id="svgstore4e80659fece029a85ca277832f30dacbWordPress__x28_alt_x29_" style="fill-rule:evenodd;clip-rule:evenodd;" d="M10.084,28C17.59,14,32.642,4.846,50,4.846
	c11.236,0,21.502,4.788,29.387,11.546c-2.253-0.436-4.713,0.054-7.19,1.471c-5.8,3.326-7.696,12.74-0.176,17.468
	c4.697,2.935,6.368,10.283,6.21,14.771c-0.155,4.495-10.917,25.138-10.917,25.138L56.836,39.26c0,0-0.361-2.524-0.361-3.252
	c0-0.918,0.303-2.042,0.869-2.684C57.734,32.897,58.33,32,59.034,32H64v-4H37v4h0.837c0.884,0,1.749,1.189,2.583,2.043
	c0.986,1.018,2.227,4.848,3.73,8.821l3.926,12.933l-8.461,19.552l-9.283-39.077c0,0,0.274-2.678,0.835-3.133
	C31.533,32.826,32.095,32,32.745,32H33v-4H10.084z M15.377,34.791c0,0-2.184-2.791-4.502-2.791H8.523C6.254,37,5,43.715,5,49.869
	c0,18.514,11.354,34.393,27.529,41.16L15.377,34.791z M88.724,27.644c0.856,4.057,0.679,8.979-0.989,14.393
	c-4.351,14.087-15.122,39.428-19.292,49.081C84.096,84.129,95,68.527,95,50.389C95,42.081,92.706,34.306,88.724,27.644z
	 M50.909,65.681L39.404,93.784c3.398,0.814,6.944,1.258,10.596,1.258c3.781,0,7.449-0.469,10.957-1.34L50.909,65.681z"/> </symbol><symbol viewBox="0 0 100 100" id="icon-yelp"><title>Yelp</title> <path id="svgstore5cebd9df976057775ba898eb5f698da9Yelp" d="M27.749,9.099c4.539-3.568,13.266-4.59,16.857-3.894c3.594,0.692,5.471,2.702,5.494,5.15l0.207,31.21
	c0.016,2.451-1.256,4.704-2.83,5.007c-1.582,0.297-3.91-1.16-5.19-3.245L25.912,16.566C24.642,14.478,22.082,13.557,27.749,9.099z
	 M22.312,68.446l16.486-5.834c2.297-0.815,4.355-3.082,4.586-5.051c0.223-1.969-1.447-4.307-3.712-5.203l-17.415-6.906
	c-2.267-0.896-4.882,1.229-5.572,4.706c0,0-0.414,12.109,0,14.616C17.104,67.279,20.015,69.264,22.312,68.446z M51.069,71.361
	c0.048-2.458-1.264-4.579-2.916-4.73c-1.653-0.153-4.277,1.257-5.844,3.129l-11.5,13.79c-1.566,1.874-0.788,6.275,1.494,7.108
	l12.025,4.177c2.289,0.833,6.32-1.632,6.367-4.082L51.069,71.361z M79.655,68.151l-14.42-4.146
	c-2.338-0.672-4.992-0.608-5.891,0.152c-0.899,0.752-0.676,3.129,0.501,5.275l9.101,16.655c1.177,2.145,5.883,1.777,7.179-0.304
	c0,0,5.485-8.092,6.494-11.126C83.628,71.617,81.991,68.822,79.655,68.151z M83.167,44.731c-0.65-2.107-5.158-8.319-7.6-10.436
	c-2.439-2.122-5.229-1.856-6.803,0.007l-9.293,11.07c-1.574,1.863-1.995,4.818-0.945,6.555c1.049,1.737,3.848,2.722,6.223,2.188
	l16.074-2.98C83.724,50.439,83.827,46.838,83.167,44.731z"/> </symbol><symbol viewBox="0 0 32 32" id="icon-youtube"><title>YouTube</title> <g id="svgstoredfe946af85d3846d642081aba05460adicomoon-ignore"> <line stroke-width="1" x1="" y1="" x2="" y2="" stroke="#449FDB" opacity=""/> </g> <path d="M26 4h-20c-3.3 0-6 2.7-6 6v12c0 3.3 2.7 6 6 6h20c3.3 0 6-2.7 6-6v-12c0-3.3-2.7-6-6-6zM12 24v-16l10 8-10 8z"/> </symbol><symbol viewBox="0 0 32 32" id="icon-youtube2"><title>YouTube</title> <g id="svgstorefa3ef5d1abb9ba60e2a7f8380314fd71icomoon-ignore"> <line stroke-width="1" x1="" y1="" x2="" y2="" stroke="#449FDB" opacity=""/> </g> <path d="M26 4h-20c-3.3 0-6 2.7-6 6v12c0 3.3 2.7 6 6 6h20c3.3 0 6-2.7 6-6v-12c0-3.3-2.7-6-6-6zM30 22c0 1.062-0.418 2.064-1.177 2.823s-1.761 1.177-2.823 1.177h-20c-1.062 0-2.064-0.418-2.823-1.177s-1.177-1.762-1.177-2.823v-12c0-1.062 0.418-2.064 1.177-2.823s1.761-1.177 2.823-1.177h20c1.062 0 2.064 0.418 2.823 1.177s1.177 1.761 1.177 2.823v12zM12 24l10-8-10-8z"/> </symbol></svg>